<mxfile host="app.diagrams.net" modified="2023-09-14T15:33:14.250Z" agent="Mozilla/5.0 (Windows NT 10.0; Win64; x64) AppleWebKit/537.36 (KHTML, like Gecko) Chrome/116.0.0.0 Safari/537.36" etag="4aCCuPs1UbmmTAiVFv1G" version="21.7.5" type="device">
  <diagram name="Strona-1" id="J_JkAK5zyyzjlVD--hpY">
    <mxGraphModel dx="2090" dy="1342" grid="0" gridSize="10" guides="1" tooltips="1" connect="1" arrows="1" fold="1" page="0" pageScale="1" pageWidth="827" pageHeight="1169" math="0" shadow="0">
      <root>
        <mxCell id="0" />
        <mxCell id="1" parent="0" />
        <mxCell id="FmrZLJCeAC3f_N0VtF2j-70" value="" style="edgeStyle=none;curved=1;rounded=0;orthogonalLoop=1;jettySize=auto;html=1;fontSize=12;startSize=8;endSize=8;" parent="1" source="FmrZLJCeAC3f_N0VtF2j-1" target="FmrZLJCeAC3f_N0VtF2j-69" edge="1">
          <mxGeometry relative="1" as="geometry" />
        </mxCell>
        <mxCell id="FmrZLJCeAC3f_N0VtF2j-1" value="" style="ellipse;fillColor=strokeColor;html=1;fontSize=16;" parent="1" vertex="1">
          <mxGeometry x="-17" y="-473" width="30" height="30" as="geometry" />
        </mxCell>
        <mxCell id="FmrZLJCeAC3f_N0VtF2j-9" value="" style="edgeStyle=none;curved=1;rounded=0;orthogonalLoop=1;jettySize=auto;html=1;fontSize=12;startSize=8;endSize=8;exitX=0;exitY=0.5;exitDx=0;exitDy=0;" parent="1" source="FmrZLJCeAC3f_N0VtF2j-4" target="FmrZLJCeAC3f_N0VtF2j-6" edge="1">
          <mxGeometry relative="1" as="geometry">
            <mxPoint x="-139" y="-222" as="sourcePoint" />
          </mxGeometry>
        </mxCell>
        <mxCell id="FmrZLJCeAC3f_N0VtF2j-10" value="" style="edgeStyle=none;curved=1;rounded=0;orthogonalLoop=1;jettySize=auto;html=1;fontSize=12;startSize=8;endSize=8;exitX=1;exitY=0.5;exitDx=0;exitDy=0;" parent="1" source="FmrZLJCeAC3f_N0VtF2j-4" target="FmrZLJCeAC3f_N0VtF2j-8" edge="1">
          <mxGeometry relative="1" as="geometry">
            <mxPoint x="211.9263544813692" y="-223.62336354481386" as="sourcePoint" />
          </mxGeometry>
        </mxCell>
        <mxCell id="FmrZLJCeAC3f_N0VtF2j-4" value="Wybierz odpowiedni panel" style="rhombus;fontSize=16;" parent="1" vertex="1">
          <mxGeometry x="-117" y="-271" width="230" height="97" as="geometry" />
        </mxCell>
        <mxCell id="FmrZLJCeAC3f_N0VtF2j-12" value="" style="edgeStyle=none;curved=1;rounded=0;orthogonalLoop=1;jettySize=auto;html=1;fontSize=12;startSize=8;endSize=8;" parent="1" source="FmrZLJCeAC3f_N0VtF2j-6" target="FmrZLJCeAC3f_N0VtF2j-11" edge="1">
          <mxGeometry relative="1" as="geometry" />
        </mxCell>
        <mxCell id="FmrZLJCeAC3f_N0VtF2j-6" value="Zaloguj jako User" style="rounded=1;whiteSpace=wrap;html=1;fontSize=16;" parent="1" vertex="1">
          <mxGeometry x="-495.06" y="-252.5" width="120" height="60" as="geometry" />
        </mxCell>
        <mxCell id="FmrZLJCeAC3f_N0VtF2j-14" value="" style="edgeStyle=none;curved=1;rounded=0;orthogonalLoop=1;jettySize=auto;html=1;fontSize=12;startSize=8;endSize=8;" parent="1" source="FmrZLJCeAC3f_N0VtF2j-8" target="FmrZLJCeAC3f_N0VtF2j-13" edge="1">
          <mxGeometry relative="1" as="geometry" />
        </mxCell>
        <mxCell id="FmrZLJCeAC3f_N0VtF2j-8" value="Zaloguj jako Administrator" style="rounded=1;whiteSpace=wrap;html=1;fontSize=16;" parent="1" vertex="1">
          <mxGeometry x="336.76000000000005" y="-255" width="120" height="60" as="geometry" />
        </mxCell>
        <mxCell id="FmrZLJCeAC3f_N0VtF2j-38" style="edgeStyle=orthogonalEdgeStyle;rounded=0;orthogonalLoop=1;jettySize=auto;html=1;entryX=0;entryY=0.5;entryDx=0;entryDy=0;fontSize=12;startSize=8;endSize=8;" parent="1" source="FmrZLJCeAC3f_N0VtF2j-11" target="FmrZLJCeAC3f_N0VtF2j-32" edge="1">
          <mxGeometry relative="1" as="geometry">
            <Array as="points">
              <mxPoint x="-602.06" y="-94" />
              <mxPoint x="-602.06" y="754" />
            </Array>
          </mxGeometry>
        </mxCell>
        <mxCell id="FmrZLJCeAC3f_N0VtF2j-58" value="" style="edgeStyle=none;curved=1;rounded=0;orthogonalLoop=1;jettySize=auto;html=1;fontSize=12;startSize=8;endSize=8;" parent="1" source="FmrZLJCeAC3f_N0VtF2j-11" target="FmrZLJCeAC3f_N0VtF2j-57" edge="1">
          <mxGeometry relative="1" as="geometry" />
        </mxCell>
        <mxCell id="FmrZLJCeAC3f_N0VtF2j-11" value="Wyświetl okno użytkownika" style="rounded=1;whiteSpace=wrap;html=1;fontSize=16;" parent="1" vertex="1">
          <mxGeometry x="-495.06" y="-124" width="120" height="60" as="geometry" />
        </mxCell>
        <mxCell id="FmrZLJCeAC3f_N0VtF2j-62" value="" style="edgeStyle=none;curved=1;rounded=0;orthogonalLoop=1;jettySize=auto;html=1;fontSize=12;startSize=8;endSize=8;" parent="1" source="FmrZLJCeAC3f_N0VtF2j-13" target="FmrZLJCeAC3f_N0VtF2j-56" edge="1">
          <mxGeometry relative="1" as="geometry" />
        </mxCell>
        <mxCell id="FmrZLJCeAC3f_N0VtF2j-13" value="Wyświetl okno Books" style="rounded=1;whiteSpace=wrap;html=1;fontSize=16;" parent="1" vertex="1">
          <mxGeometry x="336.76000000000005" y="-124" width="120" height="60" as="geometry" />
        </mxCell>
        <mxCell id="FmrZLJCeAC3f_N0VtF2j-18" value="" style="edgeStyle=none;curved=1;rounded=0;orthogonalLoop=1;jettySize=auto;html=1;fontSize=12;startSize=8;endSize=8;" parent="1" source="FmrZLJCeAC3f_N0VtF2j-15" target="FmrZLJCeAC3f_N0VtF2j-17" edge="1">
          <mxGeometry relative="1" as="geometry" />
        </mxCell>
        <mxCell id="FmrZLJCeAC3f_N0VtF2j-15" value="Wyświetl opcje zamówienia" style="rounded=1;whiteSpace=wrap;html=1;fontSize=16;" parent="1" vertex="1">
          <mxGeometry x="-495.06" y="133" width="120" height="60" as="geometry" />
        </mxCell>
        <mxCell id="FmrZLJCeAC3f_N0VtF2j-21" value="" style="edgeStyle=none;curved=1;rounded=0;orthogonalLoop=1;jettySize=auto;html=1;fontSize=12;startSize=8;endSize=8;" parent="1" source="FmrZLJCeAC3f_N0VtF2j-17" target="FmrZLJCeAC3f_N0VtF2j-20" edge="1">
          <mxGeometry relative="1" as="geometry" />
        </mxCell>
        <mxCell id="FmrZLJCeAC3f_N0VtF2j-17" value="Wprowadź dane zamówienia" style="rounded=1;whiteSpace=wrap;html=1;fontSize=16;" parent="1" vertex="1">
          <mxGeometry x="-493.06" y="262" width="120" height="60" as="geometry" />
        </mxCell>
        <mxCell id="FmrZLJCeAC3f_N0VtF2j-23" value="" style="edgeStyle=none;curved=1;rounded=0;orthogonalLoop=1;jettySize=auto;html=1;fontSize=12;startSize=8;endSize=8;" parent="1" source="FmrZLJCeAC3f_N0VtF2j-20" target="FmrZLJCeAC3f_N0VtF2j-22" edge="1">
          <mxGeometry relative="1" as="geometry" />
        </mxCell>
        <mxCell id="FmrZLJCeAC3f_N0VtF2j-24" value="Tak" style="edgeLabel;html=1;align=center;verticalAlign=middle;resizable=0;points=[];fontSize=16;" parent="FmrZLJCeAC3f_N0VtF2j-23" vertex="1" connectable="0">
          <mxGeometry x="-0.5362" y="2" relative="1" as="geometry">
            <mxPoint as="offset" />
          </mxGeometry>
        </mxCell>
        <mxCell id="FmrZLJCeAC3f_N0VtF2j-26" value="" style="edgeStyle=none;curved=1;rounded=0;orthogonalLoop=1;jettySize=auto;html=1;fontSize=12;startSize=8;endSize=8;" parent="1" source="FmrZLJCeAC3f_N0VtF2j-20" target="FmrZLJCeAC3f_N0VtF2j-25" edge="1">
          <mxGeometry relative="1" as="geometry" />
        </mxCell>
        <mxCell id="FmrZLJCeAC3f_N0VtF2j-27" value="Nie" style="edgeLabel;html=1;align=center;verticalAlign=middle;resizable=0;points=[];fontSize=16;" parent="FmrZLJCeAC3f_N0VtF2j-26" vertex="1" connectable="0">
          <mxGeometry x="-0.4795" y="-1" relative="1" as="geometry">
            <mxPoint y="1" as="offset" />
          </mxGeometry>
        </mxCell>
        <mxCell id="FmrZLJCeAC3f_N0VtF2j-20" value="Dane poprawne?" style="rhombus;fontSize=16;" parent="1" vertex="1">
          <mxGeometry x="-548.0600000000001" y="391" width="230" height="97" as="geometry" />
        </mxCell>
        <mxCell id="FmrZLJCeAC3f_N0VtF2j-30" value="" style="edgeStyle=none;curved=1;rounded=0;orthogonalLoop=1;jettySize=auto;html=1;fontSize=12;startSize=8;endSize=8;" parent="1" source="FmrZLJCeAC3f_N0VtF2j-22" target="FmrZLJCeAC3f_N0VtF2j-29" edge="1">
          <mxGeometry relative="1" as="geometry" />
        </mxCell>
        <mxCell id="FmrZLJCeAC3f_N0VtF2j-22" value="Przyjmij zamówienie" style="rounded=1;whiteSpace=wrap;html=1;fontSize=16;" parent="1" vertex="1">
          <mxGeometry x="-493.06" y="557" width="120" height="60" as="geometry" />
        </mxCell>
        <mxCell id="FmrZLJCeAC3f_N0VtF2j-28" style="edgeStyle=orthogonalEdgeStyle;rounded=0;orthogonalLoop=1;jettySize=auto;html=1;exitX=0.5;exitY=0;exitDx=0;exitDy=0;entryX=1;entryY=0.5;entryDx=0;entryDy=0;fontSize=12;startSize=8;endSize=8;" parent="1" source="FmrZLJCeAC3f_N0VtF2j-25" target="FmrZLJCeAC3f_N0VtF2j-17" edge="1">
          <mxGeometry relative="1" as="geometry" />
        </mxCell>
        <mxCell id="FmrZLJCeAC3f_N0VtF2j-33" value="" style="edgeStyle=none;curved=1;rounded=0;orthogonalLoop=1;jettySize=auto;html=1;fontSize=12;startSize=8;endSize=8;" parent="1" source="FmrZLJCeAC3f_N0VtF2j-29" target="FmrZLJCeAC3f_N0VtF2j-32" edge="1">
          <mxGeometry relative="1" as="geometry" />
        </mxCell>
        <mxCell id="FmrZLJCeAC3f_N0VtF2j-29" value="Dodaj nowy rekord do bazy danych" style="rounded=1;whiteSpace=wrap;html=1;fontSize=16;" parent="1" vertex="1">
          <mxGeometry x="-493.06" y="686" width="120" height="60" as="geometry" />
        </mxCell>
        <mxCell id="FmrZLJCeAC3f_N0VtF2j-35" style="edgeStyle=orthogonalEdgeStyle;rounded=0;orthogonalLoop=1;jettySize=auto;html=1;entryX=0.5;entryY=1;entryDx=0;entryDy=0;fontSize=12;startSize=8;endSize=8;" parent="1" source="FmrZLJCeAC3f_N0VtF2j-32" target="FmrZLJCeAC3f_N0VtF2j-25" edge="1">
          <mxGeometry relative="1" as="geometry" />
        </mxCell>
        <mxCell id="FmrZLJCeAC3f_N0VtF2j-36" value="Nie" style="edgeLabel;html=1;align=center;verticalAlign=middle;resizable=0;points=[];fontSize=16;" parent="FmrZLJCeAC3f_N0VtF2j-35" vertex="1" connectable="0">
          <mxGeometry x="-0.8598" y="-3" relative="1" as="geometry">
            <mxPoint as="offset" />
          </mxGeometry>
        </mxCell>
        <mxCell id="FmrZLJCeAC3f_N0VtF2j-74" value="" style="edgeStyle=none;curved=1;rounded=0;orthogonalLoop=1;jettySize=auto;html=1;fontSize=12;startSize=8;endSize=8;" parent="1" source="FmrZLJCeAC3f_N0VtF2j-32" target="FmrZLJCeAC3f_N0VtF2j-37" edge="1">
          <mxGeometry relative="1" as="geometry" />
        </mxCell>
        <mxCell id="FmrZLJCeAC3f_N0VtF2j-75" value="Tak" style="edgeLabel;html=1;align=center;verticalAlign=middle;resizable=0;points=[];fontSize=16;" parent="FmrZLJCeAC3f_N0VtF2j-74" vertex="1" connectable="0">
          <mxGeometry x="-0.3913" y="-2" relative="1" as="geometry">
            <mxPoint as="offset" />
          </mxGeometry>
        </mxCell>
        <mxCell id="FmrZLJCeAC3f_N0VtF2j-32" value="Opcja wyłączenia aplikacji" style="rhombus;fontSize=16;" parent="1" vertex="1">
          <mxGeometry x="-541.0600000000001" y="815" width="212" height="134" as="geometry" />
        </mxCell>
        <mxCell id="FmrZLJCeAC3f_N0VtF2j-37" value="" style="ellipse;html=1;shape=endState;fillColor=strokeColor;fontSize=16;" parent="1" vertex="1">
          <mxGeometry x="-450.06" y="1018" width="30" height="30" as="geometry" />
        </mxCell>
        <mxCell id="FmrZLJCeAC3f_N0VtF2j-47" value="" style="edgeStyle=none;curved=1;rounded=0;orthogonalLoop=1;jettySize=auto;html=1;fontSize=12;startSize=8;endSize=8;" parent="1" source="FmrZLJCeAC3f_N0VtF2j-44" target="FmrZLJCeAC3f_N0VtF2j-46" edge="1">
          <mxGeometry relative="1" as="geometry" />
        </mxCell>
        <mxCell id="FmrZLJCeAC3f_N0VtF2j-44" value="Wybierz rekord" style="rounded=1;whiteSpace=wrap;html=1;fontSize=16;" parent="1" vertex="1">
          <mxGeometry x="336.76000000000005" y="262" width="120" height="60" as="geometry" />
        </mxCell>
        <mxCell id="FmrZLJCeAC3f_N0VtF2j-49" value="" style="edgeStyle=none;curved=1;rounded=0;orthogonalLoop=1;jettySize=auto;html=1;fontSize=12;startSize=8;endSize=8;" parent="1" source="FmrZLJCeAC3f_N0VtF2j-46" target="FmrZLJCeAC3f_N0VtF2j-48" edge="1">
          <mxGeometry relative="1" as="geometry" />
        </mxCell>
        <mxCell id="FmrZLJCeAC3f_N0VtF2j-50" value="Edycja" style="edgeLabel;html=1;align=center;verticalAlign=middle;resizable=0;points=[];fontSize=16;" parent="FmrZLJCeAC3f_N0VtF2j-49" vertex="1" connectable="0">
          <mxGeometry x="-0.2427" relative="1" as="geometry">
            <mxPoint as="offset" />
          </mxGeometry>
        </mxCell>
        <mxCell id="FmrZLJCeAC3f_N0VtF2j-87" value="" style="edgeStyle=none;curved=1;rounded=0;orthogonalLoop=1;jettySize=auto;html=1;fontSize=12;startSize=8;endSize=8;" parent="1" source="FmrZLJCeAC3f_N0VtF2j-46" target="FmrZLJCeAC3f_N0VtF2j-86" edge="1">
          <mxGeometry relative="1" as="geometry" />
        </mxCell>
        <mxCell id="FmrZLJCeAC3f_N0VtF2j-88" value="Usunięcie" style="edgeLabel;html=1;align=center;verticalAlign=middle;resizable=0;points=[];fontSize=16;" parent="FmrZLJCeAC3f_N0VtF2j-87" vertex="1" connectable="0">
          <mxGeometry x="-0.2959" y="-1" relative="1" as="geometry">
            <mxPoint as="offset" />
          </mxGeometry>
        </mxCell>
        <mxCell id="FmrZLJCeAC3f_N0VtF2j-46" value="Edycja/Usunięcie?" style="rhombus;fontSize=16;" parent="1" vertex="1">
          <mxGeometry x="297.76" y="372.5" width="198" height="97" as="geometry" />
        </mxCell>
        <mxCell id="FmrZLJCeAC3f_N0VtF2j-52" value="" style="edgeStyle=none;curved=1;rounded=0;orthogonalLoop=1;jettySize=auto;html=1;fontSize=12;startSize=8;endSize=8;" parent="1" source="FmrZLJCeAC3f_N0VtF2j-48" target="FmrZLJCeAC3f_N0VtF2j-51" edge="1">
          <mxGeometry relative="1" as="geometry" />
        </mxCell>
        <mxCell id="FmrZLJCeAC3f_N0VtF2j-48" value="Edytuj dane" style="rounded=1;whiteSpace=wrap;html=1;fontSize=16;" parent="1" vertex="1">
          <mxGeometry x="336.76000000000005" y="521" width="120" height="60" as="geometry" />
        </mxCell>
        <mxCell id="FmrZLJCeAC3f_N0VtF2j-54" value="" style="edgeStyle=none;curved=1;rounded=0;orthogonalLoop=1;jettySize=auto;html=1;fontSize=12;startSize=8;endSize=8;" parent="1" source="FmrZLJCeAC3f_N0VtF2j-51" target="FmrZLJCeAC3f_N0VtF2j-53" edge="1">
          <mxGeometry relative="1" as="geometry" />
        </mxCell>
        <mxCell id="FmrZLJCeAC3f_N0VtF2j-51" value="Zapisz edytowany rekord w bazie daynch" style="rounded=1;whiteSpace=wrap;html=1;fontSize=16;" parent="1" vertex="1">
          <mxGeometry x="336.76000000000005" y="633" width="126" height="97" as="geometry" />
        </mxCell>
        <mxCell id="FmrZLJCeAC3f_N0VtF2j-78" value="" style="edgeStyle=none;curved=1;rounded=0;orthogonalLoop=1;jettySize=auto;html=1;fontSize=12;startSize=8;endSize=8;" parent="1" source="FmrZLJCeAC3f_N0VtF2j-53" target="FmrZLJCeAC3f_N0VtF2j-77" edge="1">
          <mxGeometry relative="1" as="geometry" />
        </mxCell>
        <mxCell id="FmrZLJCeAC3f_N0VtF2j-79" value="Tak" style="edgeLabel;html=1;align=center;verticalAlign=middle;resizable=0;points=[];fontSize=16;" parent="FmrZLJCeAC3f_N0VtF2j-78" vertex="1" connectable="0">
          <mxGeometry x="-0.3333" y="-2" relative="1" as="geometry">
            <mxPoint as="offset" />
          </mxGeometry>
        </mxCell>
        <mxCell id="FmrZLJCeAC3f_N0VtF2j-84" style="edgeStyle=orthogonalEdgeStyle;rounded=0;orthogonalLoop=1;jettySize=auto;html=1;entryX=0;entryY=0.5;entryDx=0;entryDy=0;fontSize=12;startSize=8;endSize=8;" parent="1" source="FmrZLJCeAC3f_N0VtF2j-53" target="FmrZLJCeAC3f_N0VtF2j-44" edge="1">
          <mxGeometry relative="1" as="geometry">
            <Array as="points">
              <mxPoint x="258.76" y="882" />
              <mxPoint x="258.76" y="292" />
            </Array>
          </mxGeometry>
        </mxCell>
        <mxCell id="FmrZLJCeAC3f_N0VtF2j-85" value="Nie" style="edgeLabel;html=1;align=center;verticalAlign=middle;resizable=0;points=[];fontSize=16;" parent="FmrZLJCeAC3f_N0VtF2j-84" vertex="1" connectable="0">
          <mxGeometry x="-0.9611" y="1" relative="1" as="geometry">
            <mxPoint x="-6" y="-1" as="offset" />
          </mxGeometry>
        </mxCell>
        <mxCell id="FmrZLJCeAC3f_N0VtF2j-53" value="Opcja wyłączenia aplikacji" style="rhombus;fontSize=16;" parent="1" vertex="1">
          <mxGeometry x="297.76" y="815" width="212" height="134" as="geometry" />
        </mxCell>
        <mxCell id="FmrZLJCeAC3f_N0VtF2j-61" value="" style="edgeStyle=none;curved=1;rounded=0;orthogonalLoop=1;jettySize=auto;html=1;fontSize=12;startSize=8;endSize=8;entryX=0.5;entryY=0;entryDx=0;entryDy=0;" parent="1" source="FmrZLJCeAC3f_N0VtF2j-56" target="FmrZLJCeAC3f_N0VtF2j-44" edge="1">
          <mxGeometry relative="1" as="geometry">
            <mxPoint x="396.7600000000002" y="133" as="targetPoint" />
          </mxGeometry>
        </mxCell>
        <mxCell id="FmrZLJCeAC3f_N0VtF2j-63" value="Nie" style="edgeLabel;html=1;align=center;verticalAlign=middle;resizable=0;points=[];fontSize=16;" parent="FmrZLJCeAC3f_N0VtF2j-61" vertex="1" connectable="0">
          <mxGeometry x="-0.24" relative="1" as="geometry">
            <mxPoint as="offset" />
          </mxGeometry>
        </mxCell>
        <mxCell id="FmrZLJCeAC3f_N0VtF2j-65" style="edgeStyle=orthogonalEdgeStyle;rounded=0;orthogonalLoop=1;jettySize=auto;html=1;entryX=1.618;entryY=0.19;entryDx=0;entryDy=0;entryPerimeter=0;fontSize=12;startSize=8;endSize=8;" parent="1" source="FmrZLJCeAC3f_N0VtF2j-56" target="FmrZLJCeAC3f_N0VtF2j-64" edge="1">
          <mxGeometry relative="1" as="geometry">
            <mxPoint x="129.0259999999997" y="-117.00000000000045" as="targetPoint" />
            <Array as="points">
              <mxPoint x="38" y="34" />
            </Array>
          </mxGeometry>
        </mxCell>
        <mxCell id="FmrZLJCeAC3f_N0VtF2j-72" value="Tak" style="edgeLabel;html=1;align=center;verticalAlign=middle;resizable=0;points=[];fontSize=16;" parent="FmrZLJCeAC3f_N0VtF2j-65" vertex="1" connectable="0">
          <mxGeometry x="-0.5936" y="-1" relative="1" as="geometry">
            <mxPoint x="1" as="offset" />
          </mxGeometry>
        </mxCell>
        <mxCell id="FmrZLJCeAC3f_N0VtF2j-56" value="Opcja powrotu do okna logowania" style="rhombus;fontSize=16;" parent="1" vertex="1">
          <mxGeometry x="246.26" y="-14" width="301" height="97" as="geometry" />
        </mxCell>
        <mxCell id="FmrZLJCeAC3f_N0VtF2j-59" value="" style="edgeStyle=none;curved=1;rounded=0;orthogonalLoop=1;jettySize=auto;html=1;fontSize=12;startSize=8;endSize=8;" parent="1" source="FmrZLJCeAC3f_N0VtF2j-57" target="FmrZLJCeAC3f_N0VtF2j-15" edge="1">
          <mxGeometry relative="1" as="geometry" />
        </mxCell>
        <mxCell id="FmrZLJCeAC3f_N0VtF2j-60" value="Nie" style="edgeLabel;html=1;align=center;verticalAlign=middle;resizable=0;points=[];fontSize=16;" parent="FmrZLJCeAC3f_N0VtF2j-59" vertex="1" connectable="0">
          <mxGeometry x="-0.48" y="1" relative="1" as="geometry">
            <mxPoint as="offset" />
          </mxGeometry>
        </mxCell>
        <mxCell id="FmrZLJCeAC3f_N0VtF2j-66" style="edgeStyle=orthogonalEdgeStyle;rounded=0;orthogonalLoop=1;jettySize=auto;html=1;exitX=1;exitY=0.5;exitDx=0;exitDy=0;entryX=1.618;entryY=0.755;entryDx=0;entryDy=0;entryPerimeter=0;fontSize=12;startSize=8;endSize=8;" parent="1" source="FmrZLJCeAC3f_N0VtF2j-57" target="FmrZLJCeAC3f_N0VtF2j-64" edge="1">
          <mxGeometry relative="1" as="geometry">
            <mxPoint x="-94.36400000000083" y="-117.00000000000045" as="targetPoint" />
          </mxGeometry>
        </mxCell>
        <mxCell id="FmrZLJCeAC3f_N0VtF2j-73" value="Tak" style="edgeLabel;html=1;align=center;verticalAlign=middle;resizable=0;points=[];fontSize=16;" parent="FmrZLJCeAC3f_N0VtF2j-66" vertex="1" connectable="0">
          <mxGeometry x="-0.7661" y="-1" relative="1" as="geometry">
            <mxPoint x="1" y="1" as="offset" />
          </mxGeometry>
        </mxCell>
        <mxCell id="FmrZLJCeAC3f_N0VtF2j-57" value="Opcja powrotu do okna logowania" style="rhombus;fontSize=16;" parent="1" vertex="1">
          <mxGeometry x="-585.5600000000001" y="-14" width="301" height="97" as="geometry" />
        </mxCell>
        <mxCell id="FmrZLJCeAC3f_N0VtF2j-68" style="edgeStyle=none;curved=1;rounded=0;orthogonalLoop=1;jettySize=auto;html=1;entryX=0.5;entryY=1;entryDx=0;entryDy=0;fontSize=12;startSize=8;endSize=8;" parent="1" source="FmrZLJCeAC3f_N0VtF2j-64" target="FmrZLJCeAC3f_N0VtF2j-4" edge="1">
          <mxGeometry relative="1" as="geometry">
            <mxPoint x="-111.06000000000046" y="-174" as="targetPoint" />
          </mxGeometry>
        </mxCell>
        <mxCell id="FmrZLJCeAC3f_N0VtF2j-64" value="" style="html=1;points=[];perimeter=orthogonalPerimeter;fillColor=strokeColor;fontSize=16;rotation=90;" parent="1" vertex="1">
          <mxGeometry x="-12" y="-195" width="5" height="152" as="geometry" />
        </mxCell>
        <mxCell id="FmrZLJCeAC3f_N0VtF2j-71" value="" style="edgeStyle=none;curved=1;rounded=0;orthogonalLoop=1;jettySize=auto;html=1;fontSize=12;startSize=8;endSize=8;" parent="1" source="FmrZLJCeAC3f_N0VtF2j-69" target="FmrZLJCeAC3f_N0VtF2j-4" edge="1">
          <mxGeometry relative="1" as="geometry" />
        </mxCell>
        <mxCell id="FmrZLJCeAC3f_N0VtF2j-69" value="Okno Login" style="rounded=1;whiteSpace=wrap;html=1;fontSize=16;" parent="1" vertex="1">
          <mxGeometry x="-62" y="-387" width="120" height="60" as="geometry" />
        </mxCell>
        <mxCell id="FmrZLJCeAC3f_N0VtF2j-77" value="" style="ellipse;html=1;shape=endState;fillColor=strokeColor;fontSize=16;" parent="1" vertex="1">
          <mxGeometry x="388.76000000000005" y="1018" width="30" height="30" as="geometry" />
        </mxCell>
        <mxCell id="FmrZLJCeAC3f_N0VtF2j-90" value="" style="edgeStyle=none;curved=1;rounded=0;orthogonalLoop=1;jettySize=auto;html=1;fontSize=12;startSize=8;endSize=8;" parent="1" source="FmrZLJCeAC3f_N0VtF2j-86" target="FmrZLJCeAC3f_N0VtF2j-89" edge="1">
          <mxGeometry relative="1" as="geometry" />
        </mxCell>
        <mxCell id="FmrZLJCeAC3f_N0VtF2j-86" value="Usuń zamówienie" style="rounded=1;whiteSpace=wrap;html=1;fontSize=16;" parent="1" vertex="1">
          <mxGeometry x="616.76" y="393" width="120" height="60" as="geometry" />
        </mxCell>
        <mxCell id="FmrZLJCeAC3f_N0VtF2j-91" style="edgeStyle=orthogonalEdgeStyle;rounded=0;orthogonalLoop=1;jettySize=auto;html=1;entryX=1;entryY=0.5;entryDx=0;entryDy=0;fontSize=12;startSize=8;endSize=8;" parent="1" source="FmrZLJCeAC3f_N0VtF2j-89" target="FmrZLJCeAC3f_N0VtF2j-53" edge="1">
          <mxGeometry relative="1" as="geometry">
            <Array as="points">
              <mxPoint x="887.76" y="882" />
            </Array>
          </mxGeometry>
        </mxCell>
        <mxCell id="FmrZLJCeAC3f_N0VtF2j-89" value="Usuń dany rekord z bazy daynch" style="rounded=1;whiteSpace=wrap;html=1;fontSize=16;" parent="1" vertex="1">
          <mxGeometry x="824.76" y="374.5" width="126" height="97" as="geometry" />
        </mxCell>
        <mxCell id="FmrZLJCeAC3f_N0VtF2j-95" value="Użytkownik" style="shape=umlFrame;whiteSpace=wrap;html=1;pointerEvents=0;recursiveResize=0;container=1;collapsible=0;width=160;fontSize=16;" parent="1" vertex="1">
          <mxGeometry x="-703" y="-310" width="577" height="1375" as="geometry" />
        </mxCell>
        <mxCell id="FmrZLJCeAC3f_N0VtF2j-25" value="Wyczyść pola tesktowe" style="rounded=1;whiteSpace=wrap;html=1;fontSize=16;" parent="FmrZLJCeAC3f_N0VtF2j-95" vertex="1">
          <mxGeometry x="447" y="719.5" width="120" height="60" as="geometry" />
        </mxCell>
        <mxCell id="FmrZLJCeAC3f_N0VtF2j-96" value="Administrator" style="shape=umlFrame;whiteSpace=wrap;html=1;pointerEvents=0;recursiveResize=0;container=1;collapsible=0;width=160;fontSize=16;" parent="1" vertex="1">
          <mxGeometry x="193" y="-310" width="805" height="1375" as="geometry" />
        </mxCell>
        <mxCell id="FmrZLJCeAC3f_N0VtF2j-98" value="Aplikacja&amp;nbsp;" style="shape=umlFrame;whiteSpace=wrap;html=1;pointerEvents=0;recursiveResize=0;container=1;collapsible=0;width=160;fontSize=16;" parent="1" vertex="1">
          <mxGeometry x="-790.06" y="-518" width="1822.06" height="1639" as="geometry" />
        </mxCell>
      </root>
    </mxGraphModel>
  </diagram>
</mxfile>
